<?xml version="1.0" encoding="utf-8"?>
<!-- Generator: Adobe Illustrator 19.2.0, SVG Export Plug-In . SVG Version: 6.00 Build 0)  -->
<svg version="1.1" id="Layer_1" xmlns="http://www.w3.org/2000/svg" xmlns:xlink="http://www.w3.org/1999/xlink" x="0px" y="0px"
	 viewBox="0 0 1519 709.9" style="enable-background:new 0 0 1519 709.9;" xml:space="preserve">
<style type="text/css">
	.st0{fill:#DD4267;}
	.st1{opacity:0.22;}
	.st2{fill:#FFFFFF;}
</style>
<g id="Group_201" transform="translate(0 374)">
	<rect id="Rectangle_1481" y="-380.1" class="st0" width="1519" height="725"/>
	<g id="Group_113" transform="translate(0 -374)" class="st1">
		<path id="Path_51" class="st2" d="M731.3,507.4H391.6c12.7-24.1,19.8-38.2,29.7-52.4C540.2,279.6,659.6,104,779.4-71.5
			c9.9-14.2,28.3-32.6,42.5-32.6c127.4-2.8,253.4-1.4,399.2-1.4c-131.6,141.5-252,271.8-385,413.3h218c1.4,4.2,4.2,8.5,5.7,12.7
			c-232.1,240.6-464.3,479.8-696.4,720.5c-2.8-2.8-5.7-5.7-9.9-7.1C477.9,862.7,599.6,691.5,731.3,507.4z"/>
		<path id="Path_52" class="st2" d="M652.5,831.6c11.3,87.8-62.3,349.6-104.7,372.3C584.6,1072.2,618.6,951.9,652.5,831.6z"/>
		<path id="Path_53" class="st2" d="M602.2,566.9C500.3,649,404.1,728.3,306.4,806.1l-12.7-8.5c2.8-9.9,2.8-22.6,8.5-26.9
			C395.6,701.4,489,632,583.8,564.1C586.7,561.2,590.9,564.1,602.2,566.9z"/>
		<path id="Path_54" class="st2" d="M785,708.4c9.9,118.9,31.1,237.8,29.7,358.1c-8.5,0-17,1.4-25.5,1.4
			c-7.1-118.9-14.2-239.2-21.2-358.1C773.6,709.9,779.3,708.4,785,708.4z"/>
		<path id="Path_55" class="st2" d="M29.7,101.2l284.5,110.4c-2.8,5.7-4.2,11.3-7.1,18.4c-97.7-29.7-195.3-62.3-288.8-101.9
			C22.6,119.6,25.5,111.1,29.7,101.2z"/>
		<path id="Path_56" class="st2" d="M942.3,231.4c89.2-72.2,176.9-143,274.6-222.2c-5.7,49.5-123.1,147.2-264.7,233.6
			C949.3,238.5,945.1,235.7,942.3,231.4z"/>
		<path id="Path_57" class="st2" d="M1383.1,416.9h-377.9v-12.7h377.9V416.9z"/>
		<path id="Path_58" class="st2" d="M443.8-327.7c41,0,133.1,196.7,118.9,261.9C523.1-152.2,483.4-238.5,443.8-327.7z"/>
		<path id="Path_59" class="st2" d="M972.1,936.3c32.6,70.8,65.1,140.1,97.7,212.3c-36.8,4.2-103.3-127.4-110.4-206.7
			C963.6,940.6,967.8,939.2,972.1,936.3z"/>
		<path id="Path_60" class="st2" d="M1494.9,726.8c-79.3-31.1-145.8-56.6-223.6-86.3C1326.5,622.1,1476.5,677.3,1494.9,726.8z"/>
		<path id="Path_61" class="st2" d="M964.8-380.1c-22.6,82.1-42.5,151.5-62.3,220.8C879.9-208.8,919.5-353.2,964.8-380.1z"/>
		<path id="Path_62" class="st2" d="M1121.3,242.8c77.8-29.7,154.3-59.4,232.1-87.8c2.8,8.5,5.7,17,9.9,26.9l-233.5,80.7
			C1125.5,255.5,1124.1,249.8,1121.3,242.8z"/>
		<path id="Path_63" class="st2" d="M916.4,571.1c75,65.1,150,131.6,225.1,196.7c-5.7,5.7-9.9,11.3-15.6,17
			c-76.4-63.7-145.8-135.9-218-203.8C910.7,579.6,913.6,575.4,916.4,571.1z"/>
		<path id="Path_64" class="st2" d="M198.2,405.5h247.7v12.7H198.2V405.5z"/>
		<path id="Path_65" class="st2" d="M416.1,572.6c-75,28.3-150,58-223.6,86.3c-2.8-8.5-5.7-17-9.9-25.5
			c75-26.9,151.5-52.4,226.5-79.3C410.5,559.8,413.3,565.5,416.1,572.6z"/>
		<path id="Path_66" class="st2" d="M991.7,506c94.8,34,189.7,66.5,283.1,100.5l-8.5,21.2c-94.8-36.8-188.3-73.6-283.1-109
			C987.5,514.5,990.3,510.3,991.7,506z"/>
		<path id="Path_67" class="st2" d="M713.8-71.5c-9.9-56.6-18.4-114.7-12.7-171.3c8.5,0,17,0,24.1-1.4c2.8,56.6,5.7,114.7,8.5,171.3
			C727.9-72.9,720.9-71.5,713.8-71.5z"/>
		<path id="Path_68" class="st2" d="M295.3-65.8c39.6,38.2,79.3,75,118.9,113.2c-5.7,5.7-11.3,12.7-17,18.4
			c-41-35.4-82.1-72.2-124.6-107.6C281.1-50.2,288.2-57.3,295.3-65.8z"/>
		<path id="Path_69" class="st2" d="M864.5,674.5c34,73.6,66.5,147.2,100.5,222.2c-7.1,2.8-12.7,5.7-19.8,8.5
			c-31.1-75-62.3-148.6-93.4-223.6C856,680.1,860.2,677.3,864.5,674.5z"/>
		<path id="Path_70" class="st2" d="M154.3,422.5c-51,7.1-103.3,14.2-154.3,4.2v-18.4h154.3V422.5z"/>
		<path id="Path_71" class="st2" d="M546.4,208.8L414.8,94.1c4.2-5.7,9.9-9.9,14.2-15.6c42.5,39.6,86.3,79.3,128.8,117.5
			C553.5,200.3,550.6,204.5,546.4,208.8z"/>
		<path id="Path_72" class="st2" d="M1156.1,796.2c25.5,22.6,52.4,45.3,77.9,69.4c1.4,1.4-1.4,11.3-4.2,12.7
			c-5.7,2.8-15.6,4.2-18.4,1.4c-25.5-19.8-49.5-42.5-73.6-62.3C1143.3,810.4,1150.4,803.3,1156.1,796.2z"/>
		<path id="Path_73" class="st2" d="M48.1,684.4l93.4-38.2c2.8,7.1,7.1,14.2,9.9,22.6c-31.1,14.2-60.9,26.9-92,41
			C55.2,699.9,52.4,692.9,48.1,684.4z"/>
		<path id="Path_74" class="st2" d="M326.9,230c56.6,22.6,113.2,43.9,168.4,66.5l-4.2,12.7c-58-19.8-114.7-39.6-172.7-59.4
			C321.3,242.8,324.1,235.7,326.9,230z"/>
		<path id="Path_75" class="st2" d="M1519,421.1h-94.8C1452.5,384.3,1486.4,382.9,1519,421.1z"/>
	</g>
</g>
</svg>
