<svg xmlns="http://www.w3.org/2000/svg" width="1650.427" height="1583.9" viewBox="0 0 1650.427 1583.9">
  <g id="Group_201" data-name="Group 201" transform="translate(54.913 374)">
    <rect id="Rectangle_1481" data-name="Rectangle 1481" width="1519" height="725" fill="#dd4267"/>
    <g id="Group_113" data-name="Group 113" transform="translate(-54.913 -374)" opacity="0.22">
      <path id="Path_51" data-name="Path 51" d="M407.928,632.623H68.217c12.739-24.063,19.816-38.217,29.725-52.372Q276.29,316.975,456.053,53.7c9.908-14.155,28.309-32.556,42.464-32.556,127.392-2.831,253.367-1.415,399.16-1.415C766.039,161.275,645.725,291.5,512.672,433.043H730.653c1.415,4.246,4.246,8.493,5.662,12.739C504.179,686.411,272.044,925.624,39.908,1166.252c-2.831-2.831-5.662-5.662-9.908-7.077C154.56,987.9,276.29,816.633,407.928,632.623Z" transform="translate(394.638 254.87)" fill="#fff"/>
      <path id="Path_52" data-name="Path 52" d="M147.044,85.6C158.368,173.358,84.764,435.219,42.3,457.866,79.1,326.228,113.073,205.914,147.044,85.6Z" transform="translate(556.44 1126.034)" fill="#fff"/>
      <path id="Path_53" data-name="Path 53" d="M331.57,70.621c-101.913,82.1-198.164,161.363-295.831,239.213L23,301.341c2.831-9.908,2.831-22.647,8.493-26.894,93.42-69.358,186.841-138.715,281.677-206.657C316,64.959,320.247,67.79,331.57,70.621Z" transform="translate(302.556 876.322)" fill="#fff"/>
      <path id="Path_54" data-name="Path 54" d="M76.086,76.9c9.908,118.9,31.14,237.8,29.725,358.111-8.493,0-16.986,1.415-25.478,1.415C73.255,317.528,66.177,197.214,59.1,78.315,64.762,78.315,70.424,76.9,76.086,76.9Z" transform="translate(777.437 1011.589)" fill="#fff"/>
      <path id="Path_55" data-name="Path 55" d="M12.624,34,297.131,144.406c-2.831,5.662-4.246,11.324-7.077,18.4C192.387,133.082,94.72,100.527,1.3,60.894,5.546,52.4,8.377,43.908,12.624,34Z" transform="translate(17.101 447.257)" fill="#fff"/>
      <path id="Path_56" data-name="Path 56" d="M73.6,249.727C162.774,177.539,250.533,106.766,348.2,27.5,342.537,77.041,225.054,174.708,83.508,261.051,80.677,256.8,76.431,253.974,73.6,249.727Z" transform="translate(968.179 361.752)" fill="#fff"/>
      <path id="Path_57" data-name="Path 57" d="M458.228,68.139H80.3V55.4H458.228Z" transform="translate(1056.315 728.765)" fill="#fff"/>
      <path id="Path_58" data-name="Path 58" d="M34.3,3.7c41.048,0,133.053,196.749,118.9,261.86C113.566,179.217,73.933,92.874,34.3,3.7Z" transform="translate(451.203 48.672)" fill="#fff"/>
      <path id="Path_59" data-name="Path 59" d="M86.839,93c32.556,70.773,65.111,140.131,97.667,212.319C147.7,309.566,81.177,177.928,74.1,98.662,78.346,97.246,82.593,95.831,86.839,93Z" transform="translate(974.756 1223.378)" fill="#fff"/>
      <path id="Path_60" data-name="Path 60" d="M322.743,161.81C243.477,130.67,176.95,105.192,99.1,75.467,154.3,57.066,304.342,112.269,322.743,161.81Z" transform="translate(1303.621 945.08)" fill="#fff"/>
      <path id="Path_61" data-name="Path 61" d="M137.884,0C115.237,82.1,95.42,151.454,75.6,220.812,52.956,171.271,92.589,26.894,137.884,0Z" transform="translate(908.141)" fill="#fff"/>
      <path id="Path_62" data-name="Path 62" d="M88.5,125.559C166.35,95.834,242.785,66.109,320.635,37.8c2.831,8.493,5.662,16.986,9.908,26.894L96.993,145.375C92.746,138.3,91.331,132.636,88.5,125.559Z" transform="translate(1164.182 497.244)" fill="#fff"/>
      <path id="Path_63" data-name="Path 63" d="M79.193,67.2c75.019,65.111,150.039,131.638,225.058,196.749-5.662,5.662-9.908,11.324-15.57,16.985C212.246,217.239,142.888,145.05,70.7,77.108,73.531,75.693,76.362,71.446,79.193,67.2Z" transform="translate(930.03 883.989)" fill="#fff"/>
      <path id="Path_64" data-name="Path 64" d="M14,55.5H261.706V68.239H14Z" transform="translate(184.164 730.081)" fill="#fff"/>
      <path id="Path_65" data-name="Path 65" d="M246.451,84.4C171.432,112.71,96.412,142.435,22.808,170.744c-2.831-8.493-5.662-16.985-9.908-25.478C87.919,118.372,164.354,92.894,239.374,66,240.789,71.662,243.62,77.324,246.451,84.4Z" transform="translate(169.694 868.204)" fill="#fff"/>
      <path id="Path_66" data-name="Path 66" d="M85.393,62.6c94.836,33.971,189.672,66.527,283.092,100.5l-8.493,21.232c-94.836-36.8-188.256-73.6-283.092-108.99Q83.27,68.97,85.393,62.6Z" transform="translate(1011.589 823.478)" fill="#fff"/>
      <path id="Path_67" data-name="Path 67" d="M68.328,182.286C58.42,125.668,49.927,67.634,55.589,11.015c8.493,0,16.986,0,24.063-1.415,2.831,56.618,5.662,114.652,8.493,171.271C82.483,180.871,75.405,182.286,68.328,182.286Z" transform="translate(707.344 126.284)" fill="#fff"/>
      <path id="Path_68" data-name="Path 68" d="M43.747,22.2c39.633,38.217,79.266,75.019,118.9,113.237-5.662,5.662-11.324,12.739-16.986,18.4C104.612,118.451,63.564,81.649,21.1,46.263,29.593,37.77,36.67,30.693,43.747,22.2Z" transform="translate(277.562 292.032)" fill="#fff"/>
      <path id="Path_69" data-name="Path 69" d="M78.539,74.5c33.971,73.6,66.527,147.208,100.5,222.227-7.077,2.831-12.739,5.662-19.817,8.493C128.08,230.2,96.94,156.6,65.8,81.577,70.046,80.162,74.293,77.331,78.539,74.5Z" transform="translate(865.573 980.018)" fill="#fff"/>
      <path id="Path_70" data-name="Path 70" d="M154.285,69.855C103.329,76.932,50.957,84.009,0,74.1V55.7H154.285Z" transform="translate(0 732.711)" fill="#fff"/>
      <path id="Path_71" data-name="Path 71" d="M163.738,162.622,32.1,47.97c4.246-5.662,9.908-9.908,14.155-15.57C88.718,72.033,132.6,111.666,175.062,149.883,170.815,154.13,167.984,158.376,163.738,162.622Z" transform="translate(422.263 426.209)" fill="#fff"/>
      <path id="Path_72" data-name="Path 72" d="M106.2,83.1c25.478,22.647,52.372,45.295,77.85,69.358,1.415,1.415-1.415,11.324-4.246,12.739-5.662,2.831-15.57,4.246-18.4,1.415-25.478-19.816-49.541-42.464-73.6-62.28C93.462,97.255,100.539,90.177,106.2,83.1Z" transform="translate(1154.974 1093.147)" fill="#fff"/>
      <path id="Path_73" data-name="Path 73" d="M3.4,110.717,96.82,72.5c2.831,7.077,7.077,14.155,9.908,22.647-31.14,14.155-60.865,26.894-92,41.048C10.477,126.287,7.646,119.21,3.4,110.717Z" transform="translate(44.726 953.709)" fill="#fff"/>
      <path id="Path_74" data-name="Path 74" d="M33.193,43.1c56.618,22.647,113.237,43.879,168.44,66.527l-4.246,12.739C139.352,102.549,82.734,82.733,24.7,62.916,27.531,55.839,30.362,48.762,33.193,43.1Z" transform="translate(324.919 566.963)" fill="#fff"/>
      <path id="Path_75" data-name="Path 75" d="M204.736,82.747H109.9C138.209,45.945,172.18,44.53,204.736,82.747Z" transform="translate(1445.691 718.403)" fill="#fff"/>
    </g>
  </g>
</svg>
