<svg id="Google_plus" data-name="Google plus" xmlns="http://www.w3.org/2000/svg" width="20" height="20" viewBox="0 0 20 20">
  <rect id="Rectangle_121" data-name="Rectangle 121" width="20" height="20" transform="translate(0 0)" fill="none"/>
  <path id="Path_51" data-name="Path 51" d="M20,6.123V8.211H18.125V10.3H16.25V8.072H14.375V6.123H16.25V4.036h1.875V6.123Zm-13.625,0h6c0,.418.125.7.125,1.113,0,4.036-2.375,6.958-6.125,6.958C2.875,14.2,0,10.994,0,7.1S2.875,0,6.375,0a5.839,5.839,0,0,1,4.25,1.809L8.875,3.758a3.177,3.177,0,0,0-2.5-1.113,4.272,4.272,0,0,0-4,4.453,4.19,4.19,0,0,0,4,4.453A3.526,3.526,0,0,0,10,8.489H6.375Z" transform="translate(0 4.176)" fill="#fff" fill-rule="evenodd"/>
</svg>
