<svg id="Group_97" data-name="Group 97" xmlns="http://www.w3.org/2000/svg" width="75.53" height="17.241" viewBox="0 0 75.53 17.241">
  <path id="Path_83" data-name="Path 83" d="M614.59,11.373h-1.426L610.449.511a.437.437,0,0,0-.4-.311h-2.563a.288.288,0,0,0-.125.028.432.432,0,0,0-.271.289l-3.055,12.22a.239.239,0,0,0,.243.311h2.568a.442.442,0,0,0,.4-.311l.322-1.3h3.162l-.351,1.346a.2.2,0,0,0,.2.266h1.431l1.1,4.271c.04.147.1.147.141,0l1.527-5.68A.2.2,0,0,0,614.59,11.373Zm-6.574-3.128.747-3.264.747,3.264Z" transform="translate(-569.852 -0.189)" fill="#a2b2bf"/>
  <path id="Path_84" data-name="Path 84" d="M1174.34,9.623V3.213h0V3.208A3.209,3.209,0,0,0,1171.132,0h-3.225a3.209,3.209,0,0,0-3.208,3.208h0V9.623h0v.011a3.209,3.209,0,0,0,3.208,3.208h3.225a3.209,3.209,0,0,0,3.208-3.208V9.623Zm-3.219-5.335V8.559h0v.006a1.068,1.068,0,0,1-1.069,1.069h-1.075a1.068,1.068,0,0,1-1.069-1.069V8.559h0V4.283a1.068,1.068,0,0,1,1.069-1.069h1.069a1.074,1.074,0,0,1,1.075,1.075Z" transform="translate(-1098.81)" fill="#a2b2bf"/>
  <path id="Path_85" data-name="Path 85" d="M414.417,0h-2.58a.326.326,0,0,0-.322.322V9.634l-2.133-.006h0a1.068,1.068,0,0,1-1.069-1.069V8.554h0V.322A.326.326,0,0,0,407.991,0h-2.568a.326.326,0,0,0-.322.322v9.3h0v.011a3.209,3.209,0,0,0,3.208,3.208h6.11a.326.326,0,0,0,.322-.322V.322A.33.33,0,0,0,414.417,0Z" transform="translate(-382.182 0)" fill="#a2b2bf"/>
  <path id="Path_86" data-name="Path 86" d="M9.317,3.308a.326.326,0,0,0,.322-.322V.422A.326.326,0,0,0,9.317.1h-9A.33.33,0,0,0,0,.422V12.608a.326.326,0,0,0,.322.322h9a.326.326,0,0,0,.322-.322V10.051a.326.326,0,0,0-.322-.322h-6.1v-1.6H7.728a.326.326,0,0,0,.322-.322V5.237a.326.326,0,0,0-.322-.322H3.213V3.308Z" transform="translate(0 -0.094)" fill="#a2b2bf"/>
  <path id="Path_87" data-name="Path 87" d="M808.133,9.634l-3.451-.006h0a1.068,1.068,0,0,1-1.069-1.069V8.554h0V.322A.326.326,0,0,0,803.291,0h-2.568a.326.326,0,0,0-.322.322v9.3h0v.011a3.209,3.209,0,0,0,3.208,3.208h4.526a.326.326,0,0,0,.322-.322V9.957A.322.322,0,0,0,808.133,9.634Z" transform="translate(-755.119 0)" fill="#a2b2bf"/>
  <path id="Path_88" data-name="Path 88" d="M974.934,2.964A3.21,3.21,0,0,0,971.732,0h-3.225A3.209,3.209,0,0,0,965.3,3.208h0V4.814h0V4.82a3.209,3.209,0,0,0,3.208,3.208h2.416a.8.8,0,0,1,0,1.6h-1.335c-.5,0-.928-.181-1.035-.605h-.006a.326.326,0,0,0-.322-.322h-2.591a.326.326,0,0,0-.322.322h0v.617h0V9.8a.333.333,0,0,0,.011.074,3.2,3.2,0,0,0,3.2,2.97h3.225a3.209,3.209,0,0,0,3.208-3.208V9.629h0v-1.6h0V8.022a3.209,3.209,0,0,0-3.208-3.208H969.6c-.057,0-.232-.006-.272-.006a.8.8,0,0,1,0-1.6l.272.006h1.069c.5,0,.922.181,1.035.6h0v.006a.326.326,0,0,0,.323.322h2.6a.322.322,0,0,0,.322-.322V3.038A.33.33,0,0,0,974.934,2.964Z" transform="translate(-910.691)" fill="#a2b2bf"/>
  <path id="Path_89" data-name="Path 89" d="M209.743,12.559l-.8-2.93V3.208A3.209,3.209,0,0,0,205.732,0h-3.225A3.209,3.209,0,0,0,199.3,3.208V9.623h0v.011a3.209,3.209,0,0,0,3.208,3.208h7.06C209.743,12.848,209.822,12.717,209.743,12.559Zm-4.022-8.271v5.34h-2.138a1.068,1.068,0,0,1-1.069-1.069V8.554h0V4.283a1.068,1.068,0,0,1,1.069-1.069h1.069a1.073,1.073,0,0,1,1.069,1.075Z" transform="translate(-188.025 0)" fill="#a2b2bf"/>
</svg>
