<svg xmlns="http://www.w3.org/2000/svg" width="47.042" height="20.877" viewBox="0 0 47.042 20.877">
  <g id="Group_101" data-name="Group 101" transform="translate(0.021 0.022)">
    <path id="Path_90" data-name="Path 90" d="M72.646,18.132a6.773,6.773,0,0,0,7.412-1.554,7.56,7.56,0,0,0,2.152-5.739,8.116,8.116,0,0,0-9.246-7.532c-2.869.359-4.623,2.072-6.376,3.985-.04.04-1.435,1.594-3.188,3.547.917.837,2.112,1.873,2.949,2.63C68.182,15.143,70.334,17.136,72.646,18.132Z" transform="translate(-38.147 -1.966)" fill="none"/>
    <path id="Path_91" data-name="Path 91" d="M46.893,8.555A10.344,10.344,0,0,0,45.339,4.53a10.124,10.124,0,0,0-7.652-4.5C33.622-.292,30.195,1.78,27.644,4.57c0,0-1.514,1.634-3.188,3.507-.319-.279-3.308-2.909-4.264-3.786-2.869-2.431-5.739-4.463-9.684-4.3A11.348,11.348,0,0,0,6.045,1.1a10.764,10.764,0,0,0-3.587,2.79A10.536,10.536,0,0,0,.107,12.261a10.285,10.285,0,0,0,1.554,4.065,10.124,10.124,0,0,0,7.652,4.5c4.065.279,7.492-1.753,10.043-4.583,0,0,1.514-1.634,3.148-3.507.319.279,3.308,2.909,4.264,3.786,2.829,2.431,5.7,4.5,9.644,4.3a11.348,11.348,0,0,0,4.463-1.116,10.764,10.764,0,0,0,3.587-2.79A10.3,10.3,0,0,0,46.893,8.555ZM18.558,15.529c-1.753,1.913-3.507,3.666-6.376,3.985A8.152,8.152,0,0,1,2.9,11.982,7.712,7.712,0,0,1,5.048,6.244a6.773,6.773,0,0,1,7.412-1.554c2.311.956,4.463,2.989,6.3,4.623.837.757,1.993,1.793,2.949,2.63C19.993,13.9,18.558,15.489,18.558,15.529Zm23.353-.917A6.773,6.773,0,0,1,34.5,16.167c-2.311-.956-4.463-2.989-6.3-4.623-.837-.757-1.993-1.793-2.949-2.63C26.967,7,28.4,5.407,28.441,5.367c1.753-1.913,3.507-3.666,6.376-3.985A8.119,8.119,0,0,1,44.1,8.874,7.744,7.744,0,0,1,41.911,14.612Z" transform="translate(0)" fill="#d2d2d2"/>
  </g>
</svg>
