<svg id="Group_112" data-name="Group 112" xmlns="http://www.w3.org/2000/svg" width="100.06" height="22.84" viewBox="0 0 100.06 22.84">
  <path id="Path_83" data-name="Path 83" d="M618.021,15h-1.889l-3.6-14.39A.579.579,0,0,0,612,.2h-3.4a.382.382,0,0,0-.165.037.572.572,0,0,0-.36.382l-4.047,16.188a.317.317,0,0,0,.322.412h3.4a.586.586,0,0,0,.532-.412l.427-1.724h4.189l-.465,1.784a.267.267,0,0,0,.27.352h1.9l1.461,5.658c.052.195.135.195.187,0l2.024-7.525A.263.263,0,0,0,618.021,15Zm-8.709-4.144.989-4.324.989,4.324Z" transform="translate(-558.754 -0.185)" fill="#fff"/>
  <path id="Path_84" data-name="Path 84" d="M1177.471,12.748V4.257h0V4.249A4.251,4.251,0,0,0,1173.221,0h-4.272a4.251,4.251,0,0,0-4.249,4.249h0v8.5h0v.015a4.251,4.251,0,0,0,4.249,4.249h4.272a4.251,4.251,0,0,0,4.25-4.249v-.015Zm-4.264-7.067v5.658h0v.007a1.415,1.415,0,0,1-1.417,1.416h-1.424a1.415,1.415,0,0,1-1.416-1.416v-.007h0V5.673a1.415,1.415,0,0,1,1.416-1.416h1.417a1.423,1.423,0,0,1,1.424,1.424Z" transform="translate(-1077.411)" fill="#fff"/>
  <path id="Path_85" data-name="Path 85" d="M417.443,0h-3.417a.432.432,0,0,0-.427.427V12.763l-2.825-.007h0a1.415,1.415,0,0,1-1.416-1.416v-.007h0V.427A.432.432,0,0,0,408.93,0h-3.4a.432.432,0,0,0-.427.427V12.748h0v.015a4.251,4.251,0,0,0,4.249,4.249h8.094a.432.432,0,0,0,.427-.427V.427A.437.437,0,0,0,417.443,0Z" transform="translate(-374.74 0)" fill="#fff"/>
  <path id="Path_86" data-name="Path 86" d="M12.344,4.349a.432.432,0,0,0,.427-.427V.527A.432.432,0,0,0,12.344.1H.427A.437.437,0,0,0,0,.527V16.67a.432.432,0,0,0,.427.427H12.344a.432.432,0,0,0,.427-.427V13.283a.432.432,0,0,0-.427-.427H4.257V10.742h5.981a.432.432,0,0,0,.427-.427V6.905a.432.432,0,0,0-.427-.427H4.257V4.349Z" transform="translate(0 -0.093)" fill="#fff"/>
  <path id="Path_87" data-name="Path 87" d="M810.645,12.763l-4.572-.007h0a1.415,1.415,0,0,1-1.417-1.416v-.007h0V.427A.432.432,0,0,0,804.23,0h-3.4a.432.432,0,0,0-.427.427V12.748h0v.015a4.251,4.251,0,0,0,4.25,4.249h6a.432.432,0,0,0,.427-.427v-3.4A.427.427,0,0,0,810.645,12.763Z" transform="translate(-740.414 0)" fill="#fff"/>
  <path id="Path_88" data-name="Path 88" d="M978.063,3.927A4.253,4.253,0,0,0,973.821,0h-4.272A4.251,4.251,0,0,0,965.3,4.249h0V6.378h0v.007a4.251,4.251,0,0,0,4.249,4.249h3.2a1.057,1.057,0,0,1,0,2.113h-1.769c-.667,0-1.229-.24-1.371-.8H969.6a.432.432,0,0,0-.427-.427h-3.432a.432.432,0,0,0-.427.427h0v.817h0v.217a.441.441,0,0,0,.015.1,4.243,4.243,0,0,0,4.242,3.935h4.272a4.251,4.251,0,0,0,4.249-4.249v-.007h0V10.635h0v-.007a4.251,4.251,0,0,0-4.249-4.249H971c-.075,0-.307-.007-.36-.007a1.057,1.057,0,0,1,0-2.113c.06,0,.3.007.36.007h1.416c.667,0,1.222.24,1.372.794h0v.007a.432.432,0,0,0,.427.427h3.44a.427.427,0,0,0,.427-.427V4.025A.434.434,0,0,0,978.063,3.927Z" transform="translate(-892.955)" fill="#fff"/>
  <path id="Path_89" data-name="Path 89" d="M213.135,16.638l-1.064-3.882V4.249A4.251,4.251,0,0,0,207.821,0h-4.272A4.251,4.251,0,0,0,199.3,4.249v8.5h0v.015a4.251,4.251,0,0,0,4.249,4.249H212.9C213.135,17.02,213.24,16.848,213.135,16.638ZM207.806,5.681v7.075h-2.833a1.415,1.415,0,0,1-1.416-1.416v-.007h0V5.673a1.415,1.415,0,0,1,1.416-1.416h1.416a1.422,1.422,0,0,1,1.416,1.424Z" transform="translate(-184.363)" fill="#fff"/>
</svg>
